<svg width="15" height="12" viewBox="0 0 15 12" fill="none" xmlns="http://www.w3.org/2000/svg">
<path id="Vector" d="M9.0285 0.269032L14.6663 5.13549C14.7246 5.18571 14.7713 5.24577 14.8037 5.31223C14.8361 5.37869 14.8537 5.45025 14.8554 5.52283C14.8571 5.5954 14.8428 5.66756 14.8135 5.73519C14.7842 5.80281 14.7403 5.86457 14.6845 5.91693L9.27729 10.991C9.16456 11.0968 9.00975 11.1579 8.84692 11.161C8.68409 11.164 8.52658 11.1088 8.40903 11.0073C8.29149 10.9058 8.22354 10.7665 8.22014 10.62C8.21674 10.4734 8.27817 10.3317 8.3909 10.2259L12.773 6.11446L0.754621 6.34035C0.591881 6.34341 0.434457 6.28816 0.316979 6.18675C0.199501 6.08535 0.131593 5.9461 0.128195 5.79963C0.124796 5.65317 0.186185 5.51148 0.298856 5.40575C0.411528 5.30002 0.566252 5.23891 0.728992 5.23585L12.7474 5.00996L8.17837 1.06679C8.06083 0.965326 7.99288 0.825997 7.98948 0.67945C7.98608 0.532902 8.0475 0.391141 8.16024 0.285352C8.27297 0.179563 8.42778 0.118412 8.59061 0.115351C8.75344 0.112291 8.91095 0.167571 9.0285 0.269032Z" fill="#777575"/>
</svg>
