<svg xmlns="http://www.w3.org/2000/svg" xmlns:xlink="http://www.w3.org/1999/xlink" width="280" zoomAndPan="magnify" viewBox="0 0 210 82.499998" height="110" preserveAspectRatio="xMidYMid meet" version="1.0"><defs><g/><clipPath id="27e1f5e3f5"><path d="M 55.855469 3.511719 L 66.292969 3.511719 L 66.292969 18.421875 L 55.855469 18.421875 Z M 55.855469 3.511719 " clip-rule="nonzero"/></clipPath><clipPath id="88badb18f1"><path d="M 58.566406 17.40625 L 63.847656 17.40625 L 63.847656 22.742188 L 58.566406 22.742188 Z M 58.566406 17.40625 " clip-rule="nonzero"/></clipPath><clipPath id="b9ecc8f2f8"><path d="M 61.207031 17.40625 C 59.75 17.40625 58.566406 18.601562 58.566406 20.074219 C 58.566406 21.546875 59.75 22.742188 61.207031 22.742188 C 62.664062 22.742188 63.847656 21.546875 63.847656 20.074219 C 63.847656 18.601562 62.664062 17.40625 61.207031 17.40625 Z M 61.207031 17.40625 " clip-rule="nonzero"/></clipPath></defs><g fill="#ffffff" fill-opacity="1"><g transform="translate(10.195763, 45.773224)"><g><path d="M 8.265625 -25.25 L 8.265625 -10.140625 C 8.265625 -8.628906 8.632812 -7.46875 9.375 -6.65625 C 10.125 -5.84375 11.21875 -5.4375 12.65625 -5.4375 C 14.09375 -5.4375 15.195312 -5.84375 15.96875 -6.65625 C 16.738281 -7.46875 17.125 -8.628906 17.125 -10.140625 L 17.125 -25.25 L 23.265625 -25.25 L 23.265625 -10.171875 C 23.265625 -7.921875 22.785156 -6.015625 21.828125 -4.453125 C 20.867188 -2.898438 19.578125 -1.726562 17.953125 -0.9375 C 16.335938 -0.144531 14.535156 0.25 12.546875 0.25 C 10.554688 0.25 8.773438 -0.140625 7.203125 -0.921875 C 5.640625 -1.703125 4.398438 -2.875 3.484375 -4.4375 C 2.578125 -6.007812 2.125 -7.921875 2.125 -10.171875 L 2.125 -25.25 Z M 8.265625 -25.25 "/></g></g></g><g fill="#ffffff" fill-opacity="1"><g transform="translate(33.578801, 45.773224)"><g><path d="M 14.453125 -20.28125 C 16.804688 -20.28125 18.679688 -19.519531 20.078125 -18 C 21.484375 -16.476562 22.1875 -14.382812 22.1875 -11.71875 L 22.1875 0 L 16.078125 0 L 16.078125 -10.90625 C 16.078125 -12.238281 15.726562 -13.273438 15.03125 -14.015625 C 14.332031 -14.765625 13.398438 -15.140625 12.234375 -15.140625 C 11.054688 -15.140625 10.117188 -14.765625 9.421875 -14.015625 C 8.722656 -13.273438 8.375 -12.238281 8.375 -10.90625 L 8.375 0 L 2.234375 0 L 2.234375 -20.078125 L 8.375 -20.078125 L 8.375 -17.40625 C 9 -18.289062 9.835938 -18.988281 10.890625 -19.5 C 11.953125 -20.019531 13.140625 -20.28125 14.453125 -20.28125 Z M 14.453125 -20.28125 "/></g></g></g><g fill="#ffffff" fill-opacity="1"><g transform="translate(55.846639, 45.773224)"><g><path d="M 5.328125 -22.15625 C 4.242188 -22.15625 3.359375 -22.472656 2.671875 -23.109375 C 1.992188 -23.742188 1.65625 -24.53125 1.65625 -25.46875 C 1.65625 -26.425781 1.992188 -27.222656 2.671875 -27.859375 C 3.359375 -28.492188 4.242188 -28.8125 5.328125 -28.8125 C 6.378906 -28.8125 7.242188 -28.492188 7.921875 -27.859375 C 8.609375 -27.222656 8.953125 -26.425781 8.953125 -25.46875 C 8.953125 -24.53125 8.609375 -23.742188 7.921875 -23.109375 C 7.242188 -22.472656 6.378906 -22.15625 5.328125 -22.15625 Z M 8.375 -20.078125 L 8.375 0 L 2.234375 0 L 2.234375 -20.078125 Z M 8.375 -20.078125 "/></g></g></g><g fill="#ffffff" fill-opacity="1"><g transform="translate(64.480247, 45.773224)"><g><path d="M 27.84375 -20.28125 C 30.332031 -20.28125 32.3125 -19.523438 33.78125 -18.015625 C 35.257812 -16.503906 36 -14.40625 36 -11.71875 L 36 0 L 29.890625 0 L 29.890625 -10.90625 C 29.890625 -12.195312 29.546875 -13.195312 28.859375 -13.90625 C 28.179688 -14.613281 27.242188 -14.96875 26.046875 -14.96875 C 24.847656 -14.96875 23.90625 -14.613281 23.21875 -13.90625 C 22.53125 -13.195312 22.1875 -12.195312 22.1875 -10.90625 L 22.1875 0 L 16.078125 0 L 16.078125 -10.90625 C 16.078125 -12.195312 15.734375 -13.195312 15.046875 -13.90625 C 14.367188 -14.613281 13.429688 -14.96875 12.234375 -14.96875 C 11.035156 -14.96875 10.09375 -14.613281 9.40625 -13.90625 C 8.71875 -13.195312 8.375 -12.195312 8.375 -10.90625 L 8.375 0 L 2.234375 0 L 2.234375 -20.078125 L 8.375 -20.078125 L 8.375 -17.546875 C 9 -18.390625 9.816406 -19.054688 10.828125 -19.546875 C 11.835938 -20.035156 12.976562 -20.28125 14.25 -20.28125 C 15.757812 -20.28125 17.109375 -19.957031 18.296875 -19.3125 C 19.484375 -18.664062 20.410156 -17.742188 21.078125 -16.546875 C 21.773438 -17.648438 22.722656 -18.546875 23.921875 -19.234375 C 25.117188 -19.929688 26.425781 -20.28125 27.84375 -20.28125 Z M 27.84375 -20.28125 "/></g></g></g><g fill="#ffffff" fill-opacity="1"><g transform="translate(100.598157, 45.773224)"><g><path d="M 1 -10.078125 C 1 -12.140625 1.390625 -13.945312 2.171875 -15.5 C 2.953125 -17.0625 4.015625 -18.257812 5.359375 -19.09375 C 6.703125 -19.9375 8.203125 -20.359375 9.859375 -20.359375 C 11.273438 -20.359375 12.515625 -20.066406 13.578125 -19.484375 C 14.640625 -18.910156 15.460938 -18.160156 16.046875 -17.234375 L 16.046875 -20.078125 L 22.1875 -20.078125 L 22.1875 0 L 16.046875 0 L 16.046875 -2.84375 C 15.441406 -1.90625 14.601562 -1.148438 13.53125 -0.578125 C 12.46875 -0.00390625 11.226562 0.28125 9.8125 0.28125 C 8.1875 0.28125 6.703125 -0.140625 5.359375 -0.984375 C 4.015625 -1.835938 2.953125 -3.050781 2.171875 -4.625 C 1.390625 -6.195312 1 -8.015625 1 -10.078125 Z M 16.046875 -10.03125 C 16.046875 -11.570312 15.617188 -12.785156 14.765625 -13.671875 C 13.910156 -14.554688 12.875 -15 11.65625 -15 C 10.425781 -15 9.382812 -14.5625 8.53125 -13.6875 C 7.6875 -12.8125 7.265625 -11.609375 7.265625 -10.078125 C 7.265625 -8.535156 7.6875 -7.316406 8.53125 -6.421875 C 9.382812 -5.523438 10.425781 -5.078125 11.65625 -5.078125 C 12.875 -5.078125 13.910156 -5.519531 14.765625 -6.40625 C 15.617188 -7.289062 16.046875 -8.5 16.046875 -10.03125 Z M 16.046875 -10.03125 "/></g></g></g><g fill="#ffffff" fill-opacity="1"><g transform="translate(123.045859, 45.773224)"><g><path d="M 8.375 -17.234375 C 8.976562 -18.160156 9.804688 -18.910156 10.859375 -19.484375 C 11.910156 -20.066406 13.144531 -20.359375 14.5625 -20.359375 C 16.21875 -20.359375 17.71875 -19.9375 19.0625 -19.09375 C 20.40625 -18.257812 21.46875 -17.0625 22.25 -15.5 C 23.03125 -13.945312 23.421875 -12.140625 23.421875 -10.078125 C 23.421875 -8.015625 23.03125 -6.195312 22.25 -4.625 C 21.46875 -3.050781 20.40625 -1.835938 19.0625 -0.984375 C 17.71875 -0.140625 16.21875 0.28125 14.5625 0.28125 C 13.175781 0.28125 11.945312 -0.00390625 10.875 -0.578125 C 9.8125 -1.148438 8.976562 -1.894531 8.375 -2.8125 L 8.375 9.5625 L 2.234375 9.5625 L 2.234375 -20.078125 L 8.375 -20.078125 Z M 17.15625 -10.078125 C 17.15625 -11.609375 16.726562 -12.8125 15.875 -13.6875 C 15.03125 -14.5625 13.984375 -15 12.734375 -15 C 11.515625 -15 10.476562 -14.554688 9.625 -13.671875 C 8.769531 -12.785156 8.34375 -11.570312 8.34375 -10.03125 C 8.34375 -8.5 8.769531 -7.289062 9.625 -6.40625 C 10.476562 -5.519531 11.515625 -5.078125 12.734375 -5.078125 C 13.953125 -5.078125 14.992188 -5.523438 15.859375 -6.421875 C 16.722656 -7.316406 17.15625 -8.535156 17.15625 -10.078125 Z M 17.15625 -10.078125 "/></g></g></g><g fill="#ffffff" fill-opacity="1"><g transform="translate(145.493561, 45.773224)"><g><path d="M 8.375 -17.234375 C 8.976562 -18.160156 9.804688 -18.910156 10.859375 -19.484375 C 11.910156 -20.066406 13.144531 -20.359375 14.5625 -20.359375 C 16.21875 -20.359375 17.71875 -19.9375 19.0625 -19.09375 C 20.40625 -18.257812 21.46875 -17.0625 22.25 -15.5 C 23.03125 -13.945312 23.421875 -12.140625 23.421875 -10.078125 C 23.421875 -8.015625 23.03125 -6.195312 22.25 -4.625 C 21.46875 -3.050781 20.40625 -1.835938 19.0625 -0.984375 C 17.71875 -0.140625 16.21875 0.28125 14.5625 0.28125 C 13.175781 0.28125 11.945312 -0.00390625 10.875 -0.578125 C 9.8125 -1.148438 8.976562 -1.894531 8.375 -2.8125 L 8.375 9.5625 L 2.234375 9.5625 L 2.234375 -20.078125 L 8.375 -20.078125 Z M 17.15625 -10.078125 C 17.15625 -11.609375 16.726562 -12.8125 15.875 -13.6875 C 15.03125 -14.5625 13.984375 -15 12.734375 -15 C 11.515625 -15 10.476562 -14.554688 9.625 -13.671875 C 8.769531 -12.785156 8.34375 -11.570312 8.34375 -10.03125 C 8.34375 -8.5 8.769531 -7.289062 9.625 -6.40625 C 10.476562 -5.519531 11.515625 -5.078125 12.734375 -5.078125 C 13.953125 -5.078125 14.992188 -5.523438 15.859375 -6.421875 C 16.722656 -7.316406 17.15625 -8.535156 17.15625 -10.078125 Z M 17.15625 -10.078125 "/></g></g></g><g fill="#ffffff" fill-opacity="1"><g transform="translate(167.941262, 45.773224)"><g><path d="M 21.15625 -10.359375 C 21.15625 -9.785156 21.117188 -9.1875 21.046875 -8.5625 L 7.125 -8.5625 C 7.21875 -7.3125 7.617188 -6.359375 8.328125 -5.703125 C 9.035156 -5.046875 9.90625 -4.71875 10.9375 -4.71875 C 12.46875 -4.71875 13.535156 -5.363281 14.140625 -6.65625 L 20.6875 -6.65625 C 20.34375 -5.332031 19.734375 -4.144531 18.859375 -3.09375 C 17.984375 -2.039062 16.882812 -1.210938 15.5625 -0.609375 C 14.25 -0.015625 12.78125 0.28125 11.15625 0.28125 C 9.1875 0.28125 7.429688 -0.132812 5.890625 -0.96875 C 4.359375 -1.8125 3.160156 -3.007812 2.296875 -4.5625 C 1.429688 -6.125 1 -7.945312 1 -10.03125 C 1 -12.125 1.425781 -13.945312 2.28125 -15.5 C 3.132812 -17.0625 4.328125 -18.257812 5.859375 -19.09375 C 7.398438 -19.9375 9.164062 -20.359375 11.15625 -20.359375 C 13.09375 -20.359375 14.816406 -19.945312 16.328125 -19.125 C 17.835938 -18.3125 19.019531 -17.148438 19.875 -15.640625 C 20.726562 -14.128906 21.15625 -12.367188 21.15625 -10.359375 Z M 14.859375 -11.984375 C 14.859375 -13.035156 14.5 -13.875 13.78125 -14.5 C 13.0625 -15.125 12.160156 -15.4375 11.078125 -15.4375 C 10.046875 -15.4375 9.175781 -15.132812 8.46875 -14.53125 C 7.757812 -13.925781 7.320312 -13.078125 7.15625 -11.984375 Z M 14.859375 -11.984375 "/></g></g></g><g fill="#ffffff" fill-opacity="1"><g transform="translate(188.1226, 45.773224)"><g><path d="M 8.375 -16.71875 C 9.09375 -17.820312 9.992188 -18.691406 11.078125 -19.328125 C 12.160156 -19.960938 13.359375 -20.28125 14.671875 -20.28125 L 14.671875 -13.78125 L 12.984375 -13.78125 C 11.453125 -13.78125 10.300781 -13.445312 9.53125 -12.78125 C 8.757812 -12.125 8.375 -10.96875 8.375 -9.3125 L 8.375 0 L 2.234375 0 L 2.234375 -20.078125 L 8.375 -20.078125 Z M 8.375 -16.71875 "/></g></g></g><g fill="#ffffff" fill-opacity="1"><g transform="translate(13.957688, 75.547185)"><g><path d="M 15.96875 -25.25 L 15.96875 -23.890625 L 4.5625 -23.890625 L 4.5625 -13.34375 L 14.53125 -13.34375 L 14.53125 -11.984375 L 4.5625 -11.984375 L 4.5625 0 L 2.953125 0 L 2.953125 -25.25 Z M 15.96875 -25.25 "/></g></g></g><g fill="#ffffff" fill-opacity="1"><g transform="translate(33.096145, 75.547185)"><g><path d="M 17.265625 -6.46875 L 5.28125 -6.46875 L 2.875 0 L 1.109375 0 L 10.390625 -24.671875 L 12.1875 -24.671875 L 21.4375 0 L 19.671875 0 Z M 16.765625 -7.84375 L 11.296875 -22.546875 L 5.796875 -7.84375 Z M 16.765625 -7.84375 "/></g></g></g><g fill="#ffffff" fill-opacity="1"><g transform="translate(57.486832, 75.547185)"><g><path d="M 16.90625 -25.25 L 16.90625 -23.890625 L 9.71875 -23.890625 L 9.71875 0 L 8.09375 0 L 8.09375 -23.890625 L 0.90625 -23.890625 L 0.90625 -25.25 Z M 16.90625 -25.25 "/></g></g></g><g fill="#ffffff" fill-opacity="1"><g transform="translate(77.128928, 75.547185)"><g><path d="M 4.5625 -23.890625 L 4.5625 -13.34375 L 14.640625 -13.34375 L 14.640625 -11.984375 L 4.5625 -11.984375 L 4.5625 -1.359375 L 15.71875 -1.359375 L 15.71875 0 L 2.953125 0 L 2.953125 -25.25 L 15.71875 -25.25 L 15.71875 -23.890625 Z M 4.5625 -23.890625 "/></g></g></g><g fill="#ffffff" fill-opacity="1"><g transform="translate(96.627129, 75.547185)"><g><path d="M 1.9375 -12.59375 C 1.9375 -15.082031 2.457031 -17.300781 3.5 -19.25 C 4.550781 -21.207031 5.992188 -22.738281 7.828125 -23.84375 C 9.660156 -24.945312 11.710938 -25.5 13.984375 -25.5 C 16.867188 -25.5 19.289062 -24.828125 21.25 -23.484375 C 23.21875 -22.140625 24.660156 -20.257812 25.578125 -17.84375 L 23.703125 -17.84375 C 22.984375 -19.757812 21.789062 -21.273438 20.125 -22.390625 C 18.457031 -23.503906 16.410156 -24.0625 13.984375 -24.0625 C 12.046875 -24.0625 10.285156 -23.597656 8.703125 -22.671875 C 7.117188 -21.753906 5.867188 -20.425781 4.953125 -18.6875 C 4.046875 -16.945312 3.59375 -14.914062 3.59375 -12.59375 C 3.59375 -10.289062 4.046875 -8.28125 4.953125 -6.5625 C 5.867188 -4.851562 7.117188 -3.53125 8.703125 -2.59375 C 10.285156 -1.65625 12.046875 -1.1875 13.984375 -1.1875 C 16.410156 -1.1875 18.457031 -1.742188 20.125 -2.859375 C 21.789062 -3.972656 22.984375 -5.488281 23.703125 -7.40625 L 25.578125 -7.40625 C 24.660156 -4.988281 23.21875 -3.109375 21.25 -1.765625 C 19.289062 -0.421875 16.867188 0.25 13.984375 0.25 C 11.710938 0.25 9.660156 -0.289062 7.828125 -1.375 C 5.992188 -2.46875 4.550781 -3.992188 3.5 -5.953125 C 2.457031 -7.910156 1.9375 -10.125 1.9375 -12.59375 Z M 1.9375 -12.59375 "/></g></g></g><g clip-path="url(#27e1f5e3f5)"><path fill="#004aad" d="M 61.195312 3.511719 C 58.261719 3.511719 55.878906 5.980469 55.878906 9.023438 C 55.878906 12.070312 57.8125 12.289062 61.195312 18.144531 C 64.570312 12.289062 66.511719 12.070312 66.511719 9.023438 C 66.511719 5.980469 64.132812 3.511719 61.195312 3.511719 Z M 61.195312 11.109375 C 60.925781 11.101562 60.664062 11.046875 60.417969 10.9375 C 60.167969 10.828125 59.949219 10.679688 59.761719 10.484375 C 59.574219 10.289062 59.429688 10.0625 59.328125 9.8125 C 59.230469 9.558594 59.183594 9.296875 59.1875 9.023438 C 59.183594 8.753906 59.230469 8.492188 59.332031 8.238281 C 59.429688 7.988281 59.574219 7.765625 59.761719 7.570312 C 59.949219 7.375 60.167969 7.222656 60.417969 7.113281 C 60.664062 7.003906 60.925781 6.949219 61.195312 6.945312 C 61.46875 6.949219 61.726562 7.003906 61.976562 7.113281 C 62.222656 7.222656 62.441406 7.375 62.632812 7.570312 C 62.820312 7.765625 62.964844 7.988281 63.0625 8.238281 C 63.164062 8.492188 63.210938 8.753906 63.207031 9.023438 C 63.210938 9.296875 63.164062 9.558594 63.0625 9.8125 C 62.964844 10.0625 62.820312 10.289062 62.632812 10.484375 C 62.445312 10.679688 62.226562 10.828125 61.976562 10.9375 C 61.726562 11.046875 61.46875 11.101562 61.195312 11.109375 Z M 61.195312 11.109375 " fill-opacity="1" fill-rule="nonzero"/></g><g clip-path="url(#88badb18f1)"><g clip-path="url(#b9ecc8f2f8)"><path fill="#004aad" d="M 58.566406 17.40625 L 63.847656 17.40625 L 63.847656 22.742188 L 58.566406 22.742188 Z M 58.566406 17.40625 " fill-opacity="1" fill-rule="nonzero"/></g></g></svg>