<svg width="8" height="8" viewBox="0 0 8 8" fill="none" xmlns="http://www.w3.org/2000/svg">
<path d="M4 0C3.20888 0 2.43552 0.234596 1.77772 0.674122C1.11993 1.11365 0.607234 1.73836 0.304484 2.46927C0.00173312 3.20017 -0.0774802 4.00444 0.0768607 4.78036C0.231202 5.55629 0.612165 6.26902 1.17157 6.82843C1.73098 7.38784 2.44372 7.7688 3.21964 7.92314C3.99556 8.07748 4.79983 7.99827 5.53074 7.69552C6.26164 7.39277 6.88635 6.88008 7.32588 6.22228C7.76541 5.56448 8 4.79113 8 4C8 2.93913 7.57857 1.92172 6.82843 1.17157C6.07828 0.421427 5.06087 0 4 0ZM4 5C3.80222 5 3.60888 4.94135 3.44443 4.83147C3.27998 4.72159 3.15181 4.56541 3.07612 4.38268C3.00043 4.19996 2.98063 3.99889 3.01922 3.80491C3.0578 3.61093 3.15304 3.43275 3.2929 3.29289C3.43275 3.15304 3.61093 3.0578 3.80491 3.01921C3.99889 2.98063 4.19996 3.00043 4.38269 3.07612C4.56541 3.15181 4.72159 3.27998 4.83147 3.44443C4.94135 3.60888 5 3.80222 5 4C5 4.26522 4.89465 4.51957 4.70711 4.70711C4.51957 4.89464 4.26522 5 4 5Z" fill="white"/>
</svg>
