<svg width="33" height="33" viewBox="0 0 33 33" fill="none" xmlns="http://www.w3.org/2000/svg">
<g id="Frame" filter="url(#filter0_ddd_407_1708)">
<path id="Vector" d="M32.8892 24.1751C32.7367 23.7942 32.4392 23.4895 32.0621 23.3281C31.6849 23.1666 31.2591 23.1615 30.8783 23.314L29.6214 23.8167L26.1332 16.839C26.0047 16.5822 25.8073 16.3663 25.563 16.2153C25.3187 16.0644 25.0372 15.9844 24.7501 15.9844H14.9532V13.9219H21.6563C22.0666 13.9219 22.46 13.7589 22.7501 13.4688C23.0402 13.1787 23.2032 12.7852 23.2032 12.375C23.2032 11.9647 23.0402 11.5713 22.7501 11.2812C22.46 10.9911 22.0666 10.8281 21.6563 10.8281H14.9532V10.5626C15.9853 10.1977 16.8551 9.47965 17.409 8.53542C17.9629 7.59119 18.1652 6.48155 17.9801 5.40261C17.795 4.32367 17.2344 3.34491 16.3974 2.63931C15.5605 1.93372 14.501 1.54672 13.4063 1.54672C12.3116 1.54672 11.2521 1.93372 10.4152 2.63931C9.57821 3.34491 9.01763 4.32367 8.83251 5.40261C8.64739 6.48155 8.84966 7.59119 9.40356 8.53542C9.95746 9.47965 10.8273 10.1977 11.8594 10.5626V11.1749C10.2247 11.6211 8.73365 12.4838 7.53196 13.6785C6.33027 14.8733 5.45903 16.3593 5.00334 17.9914C4.54765 19.6235 4.52309 21.346 4.93207 22.9904C5.34105 24.6349 6.16957 26.1451 7.33671 27.3737C8.50385 28.6022 9.96969 29.507 11.591 29.9996C13.2124 30.4923 14.9338 30.556 16.5871 30.1845C18.2405 29.813 19.7692 29.019 21.0239 27.8801C22.2786 26.7412 23.2165 25.2963 23.7459 23.6865C23.8094 23.4935 23.8342 23.2899 23.819 23.0874C23.8038 22.8848 23.7488 22.6872 23.6573 22.5058C23.5657 22.3245 23.4393 22.1629 23.2853 22.0304C23.1313 21.8979 22.9527 21.7971 22.7597 21.7336C22.5668 21.6701 22.3632 21.6453 22.1606 21.6605C21.958 21.6757 21.7604 21.7306 21.579 21.8222C21.3977 21.9138 21.2362 22.0402 21.1037 22.1942C20.9712 22.3482 20.8703 22.5267 20.8068 22.7197C20.4558 23.7863 19.8424 24.7476 19.0231 25.5153C18.2038 26.2831 17.2047 26.8328 16.1176 27.1138C15.0305 27.3949 13.8902 27.3984 12.8014 27.124C11.7127 26.8495 10.7102 26.306 9.88623 25.5432C9.06223 24.7805 8.44303 23.823 8.08548 22.7586C7.72794 21.6942 7.6435 20.557 7.83992 19.4515C8.03634 18.346 8.50733 17.3075 9.20965 16.4314C9.91197 15.5553 10.8231 14.8697 11.8594 14.4375V17.5312C11.8594 17.9415 12.0224 18.335 12.3125 18.625C12.6026 18.9151 12.996 19.0781 13.4063 19.0781H23.7936L27.4906 26.4735C27.6642 26.8204 27.9619 27.0894 28.3246 27.2272C28.6873 27.365 29.0885 27.3614 29.4487 27.2173L32.0268 26.186C32.2155 26.1106 32.3875 25.9988 32.533 25.8569C32.6784 25.7151 32.7945 25.5459 32.8746 25.3592C32.9547 25.1725 32.9972 24.9718 32.9997 24.7686C33.0022 24.5654 32.9647 24.3637 32.8892 24.1751ZM13.4063 4.64062C13.7122 4.64062 14.0113 4.73134 14.2657 4.90131C14.5201 5.07129 14.7183 5.31287 14.8354 5.59553C14.9525 5.87818 14.9831 6.18921 14.9235 6.48927C14.8638 6.78934 14.7164 7.06496 14.5001 7.2813C14.2838 7.49763 14.0081 7.64496 13.7081 7.70464C13.408 7.76433 13.097 7.7337 12.8143 7.61662C12.5317 7.49954 12.2901 7.30127 12.1201 7.04689C11.9501 6.79251 11.8594 6.49344 11.8594 6.18749C11.8594 5.77724 12.0224 5.38378 12.3125 5.09369C12.6026 4.80359 12.996 4.64062 13.4063 4.64062Z" fill="white"/>
</g>
<defs>
<filter id="filter0_ddd_407_1708" x="-4" y="0" width="41" height="41" filterUnits="userSpaceOnUse" color-interpolation-filters="sRGB">
<feFlood flood-opacity="0" result="BackgroundImageFix"/>
<feColorMatrix in="SourceAlpha" type="matrix" values="0 0 0 0 0 0 0 0 0 0 0 0 0 0 0 0 0 0 127 0" result="hardAlpha"/>
<feOffset dy="4"/>
<feGaussianBlur stdDeviation="2"/>
<feComposite in2="hardAlpha" operator="out"/>
<feColorMatrix type="matrix" values="0 0 0 0 0 0 0 0 0 0 0 0 0 0 0 0 0 0 0.25 0"/>
<feBlend mode="normal" in2="BackgroundImageFix" result="effect1_dropShadow_407_1708"/>
<feColorMatrix in="SourceAlpha" type="matrix" values="0 0 0 0 0 0 0 0 0 0 0 0 0 0 0 0 0 0 127 0" result="hardAlpha"/>
<feOffset dy="4"/>
<feGaussianBlur stdDeviation="2"/>
<feComposite in2="hardAlpha" operator="out"/>
<feColorMatrix type="matrix" values="0 0 0 0 0 0 0 0 0 0 0 0 0 0 0 0 0 0 0.25 0"/>
<feBlend mode="normal" in2="effect1_dropShadow_407_1708" result="effect2_dropShadow_407_1708"/>
<feColorMatrix in="SourceAlpha" type="matrix" values="0 0 0 0 0 0 0 0 0 0 0 0 0 0 0 0 0 0 127 0" result="hardAlpha"/>
<feOffset dy="4"/>
<feGaussianBlur stdDeviation="2"/>
<feComposite in2="hardAlpha" operator="out"/>
<feColorMatrix type="matrix" values="0 0 0 0 0 0 0 0 0 0 0 0 0 0 0 0 0 0 0.25 0"/>
<feBlend mode="normal" in2="effect2_dropShadow_407_1708" result="effect3_dropShadow_407_1708"/>
<feBlend mode="normal" in="SourceGraphic" in2="effect3_dropShadow_407_1708" result="shape"/>
</filter>
</defs>
</svg>
