<svg width="32" height="32" viewBox="0 0 32 32" fill="none" xmlns="http://www.w3.org/2000/svg">
<g id="Frame">
<path id="Vector" d="M14.5 16.5V10C14.5 9.60219 14.658 9.22065 14.9393 8.93935C15.2207 8.65805 15.6022 8.50001 16 8.50001C16.3978 8.50001 16.7794 8.65805 17.0607 8.93935C17.342 9.22065 17.5 9.60219 17.5 10V16.5C17.5 16.8978 17.342 17.2794 17.0607 17.5607C16.7794 17.842 16.3978 18 16 18C15.6022 18 15.2207 17.842 14.9393 17.5607C14.658 17.2794 14.5 16.8978 14.5 16.5ZM29.5 11.4438V20.5563C29.5009 20.8847 29.4366 21.21 29.3109 21.5134C29.1851 21.8168 29.0005 22.0922 28.7675 22.3238L22.3238 28.7675C22.0923 29.0005 21.8169 29.1852 21.5135 29.311C21.21 29.4367 20.8847 29.501 20.5563 29.5H11.4438C11.1153 29.501 10.79 29.4367 10.4866 29.311C10.1832 29.1852 9.90773 29.0005 9.67626 28.7675L3.23251 22.3238C2.99957 22.0922 2.81488 21.8168 2.68914 21.5134C2.56341 21.21 2.49912 20.8847 2.50001 20.5563V11.4438C2.49912 11.1153 2.56341 10.79 2.68914 10.4866C2.81488 10.1832 2.99957 9.90778 3.23251 9.67626L9.67626 3.23251C9.90773 2.99951 10.1832 2.81479 10.4866 2.68905C10.79 2.56331 11.1153 2.49905 11.4438 2.50001H20.5563C20.8847 2.49905 21.21 2.56331 21.5135 2.68905C21.8169 2.81479 22.0923 2.99951 22.3238 3.23251L28.7675 9.67626C29.0005 9.90778 29.1851 10.1832 29.3109 10.4866C29.4366 10.79 29.5009 11.1153 29.5 11.4438ZM26.5 11.6513L20.3488 5.50001H11.6513L5.50001 11.6513V20.3488L11.6513 26.5H20.3488L26.5 20.3488V11.6513ZM16 19.5C15.6044 19.5 15.2178 19.6173 14.8889 19.8371C14.56 20.0568 14.3036 20.3692 14.1523 20.7346C14.0009 21.1001 13.9613 21.5022 14.0384 21.8902C14.1156 22.2782 14.3061 22.6345 14.5858 22.9142C14.8655 23.1939 15.2219 23.3844 15.6098 23.4616C15.9978 23.5388 16.3999 23.4991 16.7654 23.3478C17.1308 23.1964 17.4432 22.9401 17.6629 22.6112C17.8827 22.2823 18 21.8956 18 21.5C18 20.9696 17.7893 20.4609 17.4142 20.0858C17.0392 19.7107 16.5304 19.5 16 19.5Z" fill="white"/>
</g>
</svg>
